<?xml version="1.0" encoding="UTF-8"?>
<svg xmlns="http://www.w3.org/2000/svg" xmlns:xlink="http://www.w3.org/1999/xlink" viewBox="0 0 64 64" version="1.1" width="64px" height="64px">
<g id="surface1">
<path style=" fill:#85CBF8;" d="M 59 31 C 59 46.464844 46.464844 59 31 59 C 15.535156 59 3 46.464844 3 31 C 3 15.535156 15.535156 3 31 3 C 46.464844 3 59 15.535156 59 31 Z "/>
<path style=" fill:#F9E3AE;" d="M 31 3 C 15.535156 3 3 15.535156 3 31 C 3 46.464844 15.535156 59 31 59 C 46.464844 59 59 46.464844 59 31 C 59 15.535156 46.464844 3 31 3 Z M 31 53 C 21.109375 53 12.433594 46.402344 9.792969 36.867188 C 7.15625 27.335938 11.203125 17.214844 19.6875 12.128906 C 28.171875 7.042969 39.007813 8.246094 46.171875 15.070313 L 46.851563 15.738281 C 47.109375 16.007813 47.359375 16.28125 47.601563 16.558594 C 53.257813 23.0625 54.597656 32.273438 51.023438 40.121094 C 47.449219 47.964844 39.621094 53 31 53 Z "/>
<path style=" fill:#F6D397;" d="M 31 53 C 18.851563 53 9 43.148438 9 31 L 7.339844 31 C 6.152344 30.996094 5.023438 31.519531 4.261719 32.429688 C 3.5 33.339844 3.179688 34.542969 3.390625 35.710938 C 5.675781 49.171875 17.339844 59.023438 30.996094 59.023438 C 44.652344 59.023438 56.3125 49.171875 58.601563 35.710938 C 58.808594 34.542969 58.492188 33.34375 57.730469 32.433594 C 56.972656 31.523438 55.847656 31 54.660156 31 L 53 31 C 53 43.148438 43.148438 53 31 53 Z "/>
<path style=" fill:#8D6C9F;" d="M 31 2 C 14.984375 2 2 14.984375 2 31 C 2 47.015625 14.984375 60 31 60 C 47.015625 60 60 47.015625 60 31 C 60 14.984375 47.015625 2 31 2 Z M 31 58 C 16.089844 58 4 45.910156 4 31 C 4 16.089844 16.089844 4 31 4 C 45.910156 4 58 16.089844 58 31 C 58 45.910156 45.910156 58 31 58 Z "/>
<path style=" fill:#FAEFDE;" d="M 28 40 C 27.449219 40 27 40.449219 27 41 C 26.972656 41.273438 27.066406 41.542969 27.261719 41.738281 C 27.457031 41.933594 27.726563 42.027344 28 42 L 34 42 C 34.550781 42 35 41.550781 35 41 C 35 40.449219 34.550781 40 34 40 L 32 40 L 32 26 L 33 26 C 33.550781 26 34 25.550781 34 25 C 34 24.449219 33.550781 24 33 24 L 29 24 C 28.449219 24 28 24.449219 28 25 C 27.972656 25.273438 28.066406 25.542969 28.261719 25.738281 C 28.457031 25.933594 28.726563 26.027344 29 26 L 30 26 L 30 40 Z "/>
<path style=" fill:#FAEFDE;" d="M 33 20 C 33 21.105469 32.105469 22 31 22 C 29.894531 22 29 21.105469 29 20 C 29 18.894531 29.894531 18 31 18 C 32.105469 18 33 18.894531 33 20 Z "/>
<path style=" fill:#FAEFDE;" d="M 12 31 L 12 33 C 12 33.550781 12.449219 34 13 34 C 13.550781 34 14 33.550781 14 33 L 14 31 C 14 30.449219 13.550781 30 13 30 C 12.449219 30 12 30.449219 12 31 Z "/>
<path style=" fill:#FAEFDE;" d="M 17 31 L 17 33 C 17 33.550781 17.449219 34 18 34 C 18.550781 34 19 33.550781 19 33 L 19 31 C 19 30.449219 18.550781 30 18 30 C 17.449219 30 17 30.449219 17 31 Z "/>
<path style=" fill:#FAEFDE;" d="M 22 31 L 22 33 C 22 33.550781 22.449219 34 23 34 C 23.550781 34 24 33.550781 24 33 L 24 31 C 24 30.449219 23.550781 30 23 30 C 22.449219 30 22 30.449219 22 31 Z "/>
<path style=" fill:#FAEFDE;" d="M 38 31 L 38 33 C 38 33.550781 38.449219 34 39 34 C 39.550781 34 40 33.550781 40 33 L 40 31 C 40 30.449219 39.550781 30 39 30 C 38.449219 30 38 30.449219 38 31 Z "/>
<path style=" fill:#FAEFDE;" d="M 44 34 C 44.550781 34 45 33.550781 45 33 L 45 31 C 45 30.449219 44.550781 30 44 30 C 43.449219 30 43 30.449219 43 31 L 43 33 C 43 33.550781 43.449219 34 44 34 Z "/>
<path style=" fill:#FAEFDE;" d="M 50 33 L 50 31 C 50 30.449219 49.550781 30 49 30 C 48.449219 30 48 30.449219 48 31 L 48 33 C 48 33.550781 48.449219 34 49 34 C 49.550781 34 50 33.550781 50 33 Z "/>
<path style=" fill:#8D6C9F;" d="M 31 54 C 22.390625 53.984375 14.511719 49.160156 10.582031 41.5 C 6.652344 33.839844 7.328125 24.628906 12.335938 17.625 C 17.34375 10.621094 25.839844 7 34.359375 8.238281 C 34.914063 8.320313 35.296875 8.832031 35.214844 9.386719 C 35.136719 9.9375 34.621094 10.320313 34.070313 10.238281 C 33.054688 10.085938 32.027344 10.003906 31 10 C 20.746094 10.015625 12.003906 17.433594 10.320313 27.546875 C 8.636719 37.660156 14.5 47.511719 24.191406 50.855469 C 33.886719 54.195313 44.574219 50.046875 49.476563 41.042969 C 54.382813 32.039063 52.066406 20.808594 44 14.480469 C 43.566406 14.136719 43.492188 13.507813 43.835938 13.074219 C 44.175781 12.640625 44.804688 12.566406 45.238281 12.910156 C 52.957031 18.96875 55.980469 29.257813 52.769531 38.53125 C 49.554688 47.804688 40.8125 54.015625 31 54 Z "/>
<path style=" fill:#8D6C9F;" d="M 41 12.398438 C 40.84375 12.398438 40.6875 12.363281 40.550781 12.289063 C 39.800781 11.910156 39.03125 11.578125 38.238281 11.289063 C 37.722656 11.097656 37.453125 10.523438 37.644531 10.003906 C 37.835938 9.484375 38.410156 9.21875 38.929688 9.410156 C 39.792969 9.730469 40.640625 10.101563 41.460938 10.519531 C 41.859375 10.734375 42.066406 11.195313 41.957031 11.636719 C 41.847656 12.078125 41.457031 12.394531 41 12.398438 Z "/>
</g>
</svg>
